<?xml version="1.0" standalone="no"?>
<!DOCTYPE svg PUBLIC "-//W3C//DTD SVG 20010904//EN"
 "http://www.w3.org/TR/2001/REC-SVG-20010904/DTD/svg10.dtd">
<svg version="1.0" xmlns="http://www.w3.org/2000/svg"
 width="500.000000pt" height="500.000000pt" viewBox="0 0 500.000000 500.000000"
 preserveAspectRatio="xMidYMid meet">

<g transform="translate(0.000000,500.000000) scale(0.100000,-0.100000)"
fill="#000000" stroke="none">
<path d="M500 2500 l0 -570 800 0 c527 0 800 3 800 10 0 7 -270 10 -790 10
l-790 0 0 550 0 550 145 0 c90 0 145 4 145 10 0 6 -58 10 -155 10 l-155 0 0
-570z"/>
<path d="M2900 3060 c0 -7 270 -10 790 -10 l790 0 0 -550 0 -550 -145 0 c-90
0 -145 -4 -145 -10 0 -6 58 -10 155 -10 l155 0 0 570 0 570 -800 0 c-527 0
-800 -3 -800 -10z"/>
<path d="M1810 2752 c-13 -2 -15 -32 -12 -209 3 -162 0 -208 -10 -214 -8 -6 1
-9 25 -9 28 0 36 3 30 13 -4 6 -10 104 -13 217 -4 175 -7 205 -20 202z"/>
<path d="M3327 2753 c-13 -3 -16 -9 -10 -21 13 -27 16 -368 3 -392 -10 -18 -8
-20 27 -19 21 0 32 3 26 6 -10 3 -13 57 -13 219 0 118 -3 213 -7 213 -5 -1
-16 -3 -26 -6z"/>
<path d="M3445 2747 c-12 -10 -14 -16 -7 -21 17 -10 17 -377 0 -394 -9 -9 -3
-12 27 -12 30 0 36 3 27 12 -9 9 -12 72 -12 220 0 114 -4 208 -8 208 -5 0 -16
-6 -27 -13z"/>
<path d="M688 2693 c6 -2 12 -14 12 -24 0 -11 4 -18 8 -15 5 3 64 -71 133
-164 68 -93 127 -169 132 -169 4 -1 7 79 7 177 0 125 4 182 12 190 9 9 5 12
-21 12 -29 0 -31 -1 -17 -16 13 -13 16 -42 16 -160 0 -79 -2 -144 -4 -144 -3
0 -58 72 -122 160 -100 136 -122 160 -143 159 -15 0 -20 -3 -13 -6z"/>
<path d="M2576 2673 c16 -33 20 -286 4 -327 -9 -25 -8 -26 22 -26 28 0 30 2
15 13 -16 11 -17 30 -15 162 l3 150 69 -114 c70 -116 70 -116 98 -66 10 17 9
18 -4 7 -13 -10 -25 5 -88 108 -59 98 -76 120 -95 120 -23 0 -23 -1 -9 -27z"/>
<path d="M2882 2657 c-13 -23 -16 -33 -8 -23 15 18 16 7 16 -135 0 -107 -4
-159 -12 -167 -9 -9 -4 -12 24 -12 l36 0 -10 37 c-15 53 -7 306 11 326 12 15
11 17 -10 17 -18 0 -30 -11 -47 -43z"/>
<path d="M1060 2670 c0 -15 5 -20 18 -18 9 2 17 10 17 18 0 8 -8 16 -17 18
-13 2 -18 -3 -18 -18z"/>
<path d="M3567 2683 c-14 -13 -6 -33 13 -33 13 0 20 7 20 20 0 19 -20 27 -33
13z"/>
<path d="M2838 2588 c-8 -13 -24 -41 -37 -63 -26 -47 3 -10 37 47 24 40 24 54
0 16z"/>
<path d="M1290 2592 c0 -14 64 -45 85 -41 34 7 27 27 -12 38 -46 13 -73 14
-73 3z"/>
<path d="M1580 2593 c74 -27 105 -60 120 -130 10 -44 -5 -98 -33 -118 -31 -21
-93 -19 -127 5 -61 43 -76 155 -28 208 l23 25 -23 -12 c-34 -18 -66 -94 -57
-138 14 -75 63 -115 142 -115 104 0 164 108 116 209 -18 38 -78 73 -123 72
-15 0 -19 -3 -10 -6z"/>
<path d="M1984 2581 c-23 -10 -45 -24 -49 -30 -3 -7 8 -3 27 9 42 26 92 26
118 0 22 -22 26 -56 8 -63 -8 -3 -5 -6 5 -6 16 -1 17 -6 12 -33 -21 -96 -93
-146 -149 -105 -35 26 -11 107 32 107 9 0 12 3 8 7 -4 4 -22 -1 -41 -11 -75
-41 -58 -136 25 -138 36 -1 76 25 108 72 l22 33 0 -52 c0 -44 3 -51 19 -51 17
0 19 4 10 32 -5 18 -9 68 -9 111 0 91 -8 111 -51 126 -42 14 -47 14 -95 -8z"/>
<path d="M2300 2591 c19 -5 45 -21 57 -36 l23 -26 0 25 c0 31 -3 33 -65 40
-42 5 -44 4 -15 -3z"/>
<path d="M3150 2590 c29 -13 58 -38 71 -62 9 -17 2 -18 -86 -18 l-96 0 16 29
c8 16 24 33 36 36 11 4 18 9 15 12 -3 3 -17 -2 -31 -11 -83 -54 -87 -199 -7
-240 60 -31 114 -24 160 20 37 36 37 36 2 9 -29 -23 -41 -27 -84 -22 -68 6
-106 47 -106 112 l0 45 111 0 c110 0 110 0 104 23 -11 36 -47 65 -90 71 -34 6
-37 5 -15 -4z"/>
<path d="M3681 2586 c-15 -9 -20 -16 -12 -20 16 -10 15 -233 -1 -239 -7 -3 4
-6 25 -6 35 -1 37 1 27 19 -6 11 -10 71 -9 136 0 63 -1 117 -3 119 -1 2 -14
-2 -27 -9z"/>
<path d="M3800 2590 c-23 -7 -22 -8 10 -9 41 -1 53 -8 69 -38 15 -29 15 -195
-1 -211 -9 -9 -4 -12 25 -12 34 0 37 2 27 19 -5 11 -10 60 -10 110 0 79 -3 93
-22 115 -26 29 -61 38 -98 26z"/>
<path d="M4110 2593 c74 -27 105 -60 120 -130 10 -44 -5 -98 -33 -118 -31 -21
-93 -19 -127 5 -61 43 -76 155 -28 208 l23 25 -23 -12 c-34 -18 -66 -94 -57
-138 14 -75 63 -115 142 -115 104 0 164 108 116 209 -18 38 -78 73 -123 72
-15 0 -19 -3 -10 -6z"/>
<path d="M1056 2582 c-2 -4 -1 -14 5 -22 12 -20 11 -197 -1 -221 -10 -17 -7
-19 27 -18 21 0 32 3 26 6 -10 3 -13 40 -13 134 0 121 -1 129 -19 129 -11 0
-22 -4 -25 -8z"/>
<path d="M1215 2559 c-115 -101 -22 -282 120 -233 21 7 50 25 64 39 l26 27
-39 -26 c-45 -30 -95 -34 -137 -9 -76 45 -77 176 -1 217 15 9 22 15 15 16 -7
0 -28 -14 -48 -31z"/>
<path d="M2220 2570 c-44 -44 -20 -92 60 -121 79 -29 98 -50 82 -92 l-11 -32
19 24 c41 49 21 92 -57 121 -90 34 -112 62 -76 102 22 24 8 23 -17 -2z"/>
<path d="M3561 2581 c-9 -6 -10 -11 -2 -15 16 -10 15 -218 -1 -234 -9 -9 -3
-12 27 -12 30 0 36 3 27 12 -8 8 -12 53 -12 135 0 125 -4 136 -39 114z"/>
<path d="M2048 2483 c7 -3 16 -2 19 1 4 3 -2 6 -13 5 -11 0 -14 -3 -6 -6z"/>
<path d="M2190 2378 c0 -36 13 -47 63 -57 26 -5 44 -5 41 0 -3 5 -12 9 -21 9
-9 0 -31 16 -49 36 -32 33 -34 34 -34 12z"/>
<path d="M698 2345 c-4 -21 -1 -25 17 -25 21 0 22 2 12 25 -15 32 -23 32 -29
0z"/>
<path d="M1340 2230 c-25 -25 -25 -32 -2 -60 14 -18 25 -21 45 -16 38 9 48 53
17 78 -28 23 -35 23 -60 -2z m64 -16 c9 -25 -12 -56 -37 -52 -22 3 -33 28 -23
54 7 19 52 18 60 -2z"/>
<path d="M1620 2232 c-18 -14 -21 -25 -16 -45 9 -38 53 -48 78 -17 23 28 23
35 -2 60 -25 25 -32 25 -60 2z m55 -37 c0 -23 -5 -31 -22 -33 -14 -2 -26 4
-32 17 -16 30 -3 53 28 49 22 -2 26 -8 26 -33z"/>
<path d="M1781 2233 c-23 -16 -28 -52 -9 -71 25 -25 78 -8 78 25 0 8 -11 13
-27 12 -27 -1 -27 -1 -4 -8 22 -6 22 -7 6 -21 -22 -18 -50 -2 -50 31 0 21 4
24 37 23 39 -1 43 10 9 19 -11 2 -29 -2 -40 -10z"/>
<path d="M2467 2243 c-4 -3 -7 -26 -7 -50 0 -41 2 -43 28 -42 23 2 24 2 5 6
-13 2 -23 11 -23 19 0 8 10 14 23 15 l22 0 -22 9 c-28 12 -30 30 -3 30 11 0
20 5 20 10 0 11 -33 14 -43 3z"/>
<path d="M2941 2200 l2 -55 7 45 c4 25 4 49 -1 55 -5 5 -8 -13 -8 -45z"/>
<path d="M3591 2234 c-38 -27 -22 -84 25 -84 29 0 46 23 42 56 -4 34 -37 48
-67 28z m56 -20 c8 -22 -10 -49 -32 -49 -10 0 -22 7 -28 16 -15 24 -1 49 28
49 15 0 28 -7 32 -16z"/>
<path d="M4030 2232 c-18 -14 -21 -25 -16 -45 8 -34 51 -47 72 -23 8 9 9 11 2
6 -31 -26 -76 7 -61 45 5 13 14 16 42 12 33 -6 35 -5 17 8 -25 19 -29 19 -56
-3z"/>
<path d="M4177 2243 c-4 -3 -7 -26 -7 -50 0 -41 2 -43 28 -42 23 2 24 2 5 6
-13 2 -23 11 -23 19 0 8 10 14 23 15 l22 0 -22 9 c-28 12 -30 30 -3 30 11 0
20 5 20 10 0 11 -33 14 -43 3z"/>
<path d="M1061 2193 c1 -26 4 -38 6 -26 3 13 13 23 26 25 34 5 29 42 -5 46
-27 3 -28 2 -27 -45z m47 25 c-7 -19 -38 -22 -38 -4 0 10 9 16 21 16 12 0 19
-5 17 -12z"/>
<path d="M1193 2195 c0 -27 2 -40 4 -27 3 15 11 22 28 22 17 0 25 -7 28 -22 2
-13 5 0 5 27 1 39 -1 45 -8 28 -5 -13 -18 -23 -29 -23 -12 0 -21 8 -24 23 -2
12 -4 0 -4 -28z"/>
<path d="M1488 2233 c7 -2 12 -22 12 -44 0 -21 5 -39 10 -39 6 0 10 18 10 39
0 22 5 42 13 44 6 3 -4 5 -23 5 -19 0 -29 -2 -22 -5z"/>
<path d="M1921 2193 c1 -27 4 -38 6 -25 2 12 7 22 10 22 2 0 14 -10 24 -22 19
-22 19 -22 10 -2 -7 14 -7 24 1 32 17 17 1 42 -27 42 -23 0 -25 -3 -24 -47z
m47 25 c-7 -19 -38 -22 -38 -4 0 10 9 16 21 16 12 0 19 -5 17 -12z"/>
<path d="M2064 2204 c-8 -20 -13 -41 -10 -47 3 -9 5 -8 5 1 1 14 51 17 51 2 0
-5 4 -10 9 -10 5 0 1 20 -8 45 -9 25 -19 45 -24 45 -4 0 -15 -16 -23 -36z m36
-16 c0 -5 -7 -8 -15 -8 -17 0 -18 2 -9 25 5 13 8 14 15 3 5 -7 9 -16 9 -20z"/>
<path d="M2191 2193 c1 -27 4 -38 6 -26 3 13 13 23 26 25 14 2 23 11 25 26 3
19 -1 22 -27 22 -30 0 -31 -1 -30 -47z m49 22 c0 -8 -9 -15 -20 -15 -11 0 -20
7 -20 15 0 8 9 15 20 15 11 0 20 -7 20 -15z"/>
<path d="M2323 2195 c0 -27 2 -40 4 -27 3 15 11 22 28 22 17 0 25 -7 28 -22 2
-13 4 0 4 27 0 28 -2 40 -4 28 -3 -16 -11 -23 -28 -23 -17 0 -25 7 -28 23 -2
12 -4 0 -4 -28z"/>
<path d="M2581 2193 c1 -27 4 -38 6 -25 5 28 19 28 33 1 7 -11 14 -18 17 -15
3 3 0 12 -6 20 -8 10 -9 16 -1 21 5 3 10 15 10 26 0 14 -7 19 -30 19 -29 0
-30 -1 -29 -47z m49 22 c0 -8 -9 -15 -20 -15 -11 0 -20 7 -20 15 0 8 9 15 20
15 11 0 20 -7 20 -15z"/>
<path d="M2808 2195 c-10 -25 -13 -45 -8 -45 6 0 10 5 10 10 0 15 47 12 53 -2
4 -8 6 -9 6 -2 1 17 -28 84 -37 84 -4 0 -15 -20 -24 -45z m42 -7 c0 -5 -7 -8
-15 -8 -15 0 -20 21 -8 33 7 7 23 -11 23 -25z"/>
<path d="M3000 2208 l0 -33 -20 25 c-11 14 -20 21 -20 15 0 -5 11 -23 25 -40
l24 -30 1 48 c0 26 -2 47 -5 47 -3 0 -5 -15 -5 -32z"/>
<path d="M3080 2194 c0 -45 0 -45 31 -42 38 4 54 26 45 61 -5 23 -12 27 -41
27 -35 0 -35 0 -35 -46z m67 20 c8 -20 -8 -48 -31 -52 -12 -3 -16 4 -16 32 0
30 4 36 20 36 11 0 23 -7 27 -16z"/>
<path d="M3310 2195 c0 -25 5 -45 10 -45 6 0 10 9 10 20 0 11 6 20 13 20 19 0
36 20 30 36 -3 8 -18 14 -34 14 -28 0 -29 -2 -29 -45z m50 20 c0 -8 -7 -15
-15 -15 -8 0 -15 7 -15 15 0 8 7 15 15 15 8 0 15 -7 15 -15z"/>
<path d="M3441 2193 c1 -27 4 -38 6 -25 5 28 19 28 33 1 7 -11 14 -18 17 -15
3 3 0 12 -6 20 -8 10 -9 16 -1 21 5 3 10 15 10 26 0 14 -7 19 -30 19 -29 0
-30 -1 -29 -47z m49 22 c0 -8 -9 -15 -20 -15 -11 0 -20 7 -20 15 0 8 9 15 20
15 11 0 20 -7 20 -15z"/>
<path d="M3730 2195 c0 -41 2 -45 24 -45 25 0 56 23 56 41 0 27 -22 49 -50 49
-29 0 -30 -2 -30 -45z m55 0 c0 -23 -5 -31 -22 -33 -20 -3 -23 1 -23 33 0 32
3 36 23 33 17 -2 22 -10 22 -33z"/>
<path d="M3881 2202 c-1 -46 18 -64 48 -45 18 11 28 83 12 83 -6 0 -11 -18
-11 -41 0 -33 -3 -40 -17 -37 -12 2 -20 16 -24 43 l-6 40 -2 -43z"/>
<path d="M4291 2193 c1 -27 4 -38 6 -25 2 12 7 22 10 22 2 0 14 -10 24 -22 19
-22 19 -22 10 -2 -7 14 -7 24 1 32 17 17 1 42 -27 42 -23 0 -25 -3 -24 -47z
m47 25 c-7 -19 -38 -22 -38 -4 0 10 9 16 21 16 12 0 19 -5 17 -12z"/>
</g>
</svg>
